<svg width="26" height="32" viewBox="0 0 26 32" fill="none" xmlns="http://www.w3.org/2000/svg">
<path d="M7.99992 16H17.9999M7.99992 22.6667H17.9999M21.3333 31H4.66659C3.78253 31 2.93468 30.6488 2.30956 30.0237C1.68444 29.3986 1.33325 28.5507 1.33325 27.6667V4.33333C1.33325 3.44928 1.68444 2.60143 2.30956 1.97631C2.93468 1.35119 3.78253 1 4.66659 1H13.9766C14.4186 1.00009 14.8424 1.17575 15.1549 1.48833L24.1783 10.5117C24.4908 10.8242 24.6665 11.248 24.6666 11.69V27.6667C24.6666 28.5507 24.3154 29.3986 23.6903 30.0237C23.0652 30.6488 22.2173 31 21.3333 31Z" stroke="#337669" stroke-width="2" stroke-linecap="round" stroke-linejoin="round"/>
</svg>
