<svg width="30" height="32" viewBox="0 0 30 32" fill="none" xmlns="http://www.w3.org/2000/svg">
<path d="M20 24.3333H28.3333L25.9916 21.9917C25.6772 21.6771 25.4277 21.3037 25.2576 20.8928C25.0874 20.4819 24.9999 20.0414 25 19.5967V14.3333C25.0002 12.2649 24.3593 10.2472 23.1653 8.55815C21.9714 6.86906 20.2833 5.59161 18.3333 4.90167V4.33333C18.3333 3.44928 17.9821 2.60143 17.357 1.97631C16.7319 1.35119 15.884 1 15 1C14.1159 1 13.2681 1.35119 12.6429 1.97631C12.0178 2.60143 11.6666 3.44928 11.6666 4.33333V4.90167C7.78329 6.275 4.99996 9.98 4.99996 14.3333V19.5983C4.99996 20.495 4.64329 21.3567 4.00829 21.9917L1.66663 24.3333H9.99996M20 24.3333V26C20 27.3261 19.4732 28.5979 18.5355 29.5355C17.5978 30.4732 16.326 31 15 31C13.6739 31 12.4021 30.4732 11.4644 29.5355C10.5267 28.5979 9.99996 27.3261 9.99996 26V24.3333M20 24.3333H9.99996" stroke="#337669" stroke-width="2" stroke-linecap="round" stroke-linejoin="round"/>
</svg>
