<svg width="32" height="32" viewBox="0 0 32 32" fill="none" xmlns="http://www.w3.org/2000/svg">
<path d="M9.71333 11C10.6283 9.05833 13.0967 7.66667 16 7.66667C19.6833 7.66667 22.6667 9.905 22.6667 12.6667C22.6667 15 20.5367 16.9583 17.6567 17.5117C16.7533 17.685 16 18.4117 16 19.3333M16 24.3333H16.0167M31 16C31 17.9698 30.612 19.9204 29.8582 21.7403C29.1044 23.5601 27.9995 25.2137 26.6066 26.6066C25.2137 27.9995 23.5601 29.1044 21.7403 29.8582C19.9204 30.612 17.9698 31 16 31C14.0302 31 12.0796 30.612 10.2597 29.8582C8.43986 29.1044 6.78628 27.9995 5.3934 26.6066C4.00052 25.2137 2.89563 23.5601 2.14181 21.7403C1.38799 19.9204 1 17.9698 1 16C1 12.0218 2.58035 8.20644 5.3934 5.3934C8.20644 2.58035 12.0218 1 16 1C19.9782 1 23.7936 2.58035 26.6066 5.3934C29.4196 8.20644 31 12.0218 31 16Z" stroke="#337669" stroke-width="2" stroke-linecap="round" stroke-linejoin="round"/>
</svg>
